<svg xmlns="http://www.w3.org/2000/svg" viewBox="0 0 6194.2 5911.98"><defs><style>.avatarWhite{fill:#fff;}.avatarPink{fill:#d17379;}.avatarDarkBlue{fill:#171c33;}</style></defs><g id="Calque_2" data-name="Calque 2"><g id="Calque_1-2" data-name="Calque 1"><g id="Groupe_8" data-name="Groupe 8"><circle id="Ellipse_9" data-name="Ellipse 9" class="avatarWhite" cx="3238.21" cy="2955.99" r="2955.99"/><g id="Groupe_5" data-name="Groupe 5"><circle id="Ellipse_10" data-name="Ellipse 10" class="avatarPink" cx="2794.28" cy="2441.22" r="2287.26"/><ellipse id="Ellipse_11" data-name="Ellipse 11" class="avatarDarkBlue" cx="3036.08" cy="2284.62" rx="391.6" ry="532.71"/><ellipse id="Ellipse_12" data-name="Ellipse 12" class="avatarDarkBlue" cx="1546.75" cy="2284.62" rx="391.6" ry="532.71"/><circle id="Ellipse_13" data-name="Ellipse 13" class="avatarDarkBlue" cx="2508.28" cy="3944.72" r="105.79"/><path id="Tracé_11" data-name="Tracé 11" class="avatarPink" d="M4884.52,2538.32c1282.29,854.8,688,1775.71,688,1775.71s88.41,492.85-316.23,532.71c-560.48,55.16-503.81-745.79-173.79-676.85,229.33-28,485.68-450.35-386.69-1020.08Z"/><path id="Tracé_12" data-name="Tracé 12" class="avatarPink" d="M825.51,2538.32c-1282.29,854.8-688,1775.71-688,1775.71s-88.41,492.85,316.23,532.71c560.48,55.16,503.81-745.79,173.79-676.85-229.33-28-485.68-450.35,386.69-1020.08Z"/></g></g></g></g></svg>