<svg xmlns="http://www.w3.org/2000/svg" viewBox="0 0 6194.2 5911.98"><defs><style>.avatarWhite{fill:#fff;}.avatarBlue{fill:#4fa0af;}.avatarDarkBlue{fill:#171c33;}</style></defs><g id="Calque_2" data-name="Calque 2"><g id="Calque_1-2" data-name="Calque 1"><circle id="Ellipse_9" data-name="Ellipse 9" class="avatarWhite" cx="2955.99" cy="2955.99" r="2955.99"/><circle id="Ellipse_10" data-name="Ellipse 10" class="avatarBlue" cx="3399.92" cy="2441.22" r="2287.26"/><ellipse id="Ellipse_11" data-name="Ellipse 11" class="avatarDarkBlue" cx="3158.12" cy="2284.62" rx="391.6" ry="532.71"/><ellipse id="Ellipse_12" data-name="Ellipse 12" class="avatarDarkBlue" cx="4647.45" cy="2284.62" rx="391.6" ry="532.71"/><circle id="Ellipse_13" data-name="Ellipse 13" class="avatarDarkBlue" cx="3685.92" cy="3944.72" r="105.79"/><path id="Tracé_11" data-name="Tracé 11" class="avatarBlue" d="M1309.68,2538.32C27.39,3393.12,621.69,4314,621.69,4314s-88.41,492.85,316.22,532.71c560.49,55.16,503.81-745.79,173.8-676.85-229.33-28-485.68-450.35,386.69-1020.08Z"/><path id="Tracé_12" data-name="Tracé 12" class="avatarBlue" d="M5368.69,2538.32c1282.29,854.8,688,1775.71,688,1775.71s88.41,492.85-316.23,532.71C5180,4901.9,5236.64,4101,5566.66,4169.89c229.33-28,485.68-450.35-386.69-1020.08Z"/></g></g></svg>