<svg xmlns="http://www.w3.org/2000/svg" viewBox="0 0 207.45 641.23"><defs><style>.cls-1{fill:#465f77;}.cls-2{fill:#647d9b;}.cls-3{fill:#333;}</style></defs><g id="Calque_2" data-name="Calque 2"><g id="Calque_1-2" data-name="Calque 1"><path class="cls-1" d="M99.54,0C66.81,0,43.22,23.59,43.22,43.38V641.23h5.33L50.07,44.14Z"/><path class="cls-2" d="M100.22,0c28,.37,50.31,23.73,50.31,51.75V641.23h-102V51A51,51,0,0,1,100.22,0Z"/><path class="cls-1" d="M48.58,26.25c-.2.34-.77,1.28-1.19,2-19.54-2.15-32.06-3.11-32.17-2.33C15,27.33,54.06,33.7,102.39,40.17s87.66,10.6,87.84,9.21c.12-.9-16.07-3.86-40.54-7.59-.15-.83-.37-2-.48-2.43,34.75,5.65,58.56,11,58.24,13.35C207,56,160.2,52.52,102.92,44.85S-.44,28.26,0,24.92C.29,22.79,19.64,23.47,48.58,26.25Z"/><rect class="cls-3" id="window-0" x="90.38" y="65.72" width="35.24" height="49.4" rx="15.5" transform="translate(216.01 180.84) rotate(180)"/><rect class="cls-3" id="window-1" x="90.38" y="129.13" width="35.24" height="49.4" rx="15.5" transform="translate(216.01 307.66) rotate(-180)"/><rect class="cls-3" id="window-2" x="90.38" y="192.54" width="35.24" height="49.4" rx="15.5" transform="translate(216.01 434.48) rotate(180)"/><rect class="cls-3" id="window-3" x="90.38" y="255.95" width="35.24" height="49.4" rx="15.5" transform="translate(216.01 561.3) rotate(180)"/><rect class="cls-3" id="window-4" x="90.38" y="319.36" width="35.24" height="49.4" rx="15.5" transform="translate(216.01 688.13) rotate(180)"/><rect class="cls-3" id="window-5" x="90.38" y="382.77" width="35.24" height="49.4" rx="15.5" transform="translate(216.01 814.95) rotate(-180)"/><rect class="cls-3" id="window-6" x="90.38" y="446.18" width="35.24" height="49.4" rx="15.5" transform="translate(216.01 941.77) rotate(180)"/><rect class="cls-3" id="window-7" x="90.38" y="509.6" width="35.24" height="49.4" rx="15.5" transform="translate(216.01 1068.6) rotate(180)"/><rect class="cls-3" id="window-8" x="90.38" y="573.01" width="35.24" height="49.4" rx="15.5" transform="translate(216.01 1195.42) rotate(180)"/></g></g></svg>