<svg xmlns="http://www.w3.org/2000/svg" viewBox="0 0 158.9 316.38"><defs><style>.cls-1{fill:#465f77;}.cls-2{fill:#647d9b;}.cls-3{fill:#333;}</style></defs><g id="Calque_2" data-name="Calque 2"><g id="Calque_1-2" data-name="Calque 1"><path class="cls-1" d="M76.25,0C51.18,0,33.11,18.07,33.11,33.23V316.38h4.08L38.35,33.81Z"/><path class="cls-2" d="M76.25,0A39.05,39.05,0,0,1,115.3,39.06V316.38H37.19V39.06A39.06,39.06,0,0,1,76.25,0Z"/><path class="cls-1" d="M37.21,20.11c-.15.25-.59,1-.91,1.55-15-1.65-24.56-2.39-24.64-1.79-.14,1.06,29.75,5.94,66.77,10.9s67.14,8.12,67.28,7.05c.1-.68-12.3-3-31.05-5.81-.11-.63-.28-1.53-.37-1.86,26.62,4.32,44.86,8.38,44.61,10.22-.34,2.55-36.19-.14-80.07-6S-.34,21.64,0,19.09C.22,17.45,15,18,37.21,20.11Z"/><path class="cls-1" d="M37.21,182.23c-.15.25-.59,1-.91,1.55-15-1.65-24.56-2.39-24.64-1.79-.14,1.06,29.75,5.94,66.77,10.9s67.14,8.11,67.28,7.05c.1-.68-12.3-3-31.05-5.81-.11-.63-.28-1.53-.37-1.86,26.62,4.32,44.86,8.38,44.61,10.22-.34,2.55-36.19-.14-80.07-6S-.34,183.76,0,181.21C.22,179.57,15,180.09,37.21,182.23Z"/><rect class="cls-3" id="window-9" x="69.23" y="50.34" width="26.99" height="37.84" rx="12.69" transform="translate(165.46 138.52) rotate(-180)"/><rect class="cls-3" id="window-10" x="69.23" y="102.19" width="26.99" height="37.84" rx="12.69" transform="translate(165.46 242.22) rotate(-180)"/><rect class="cls-3" id="window-11" x="69.23" y="154.04" width="26.99" height="37.84" rx="12.69" transform="translate(165.46 345.92) rotate(-180)"/><rect class="cls-3" id="window-12" x="69.23" y="205.89" width="26.99" height="37.84" rx="12.69" transform="translate(165.46 449.62) rotate(-180)"/><rect class="cls-3" id="window-13" x="69.23" y="257.74" width="26.99" height="37.84" rx="12.69" transform="translate(165.46 553.32) rotate(-180)"/></g></g></svg>