<svg xmlns="http://www.w3.org/2000/svg" viewBox="0 0 268.49 708.89"><defs><style>.cls-2{fill:#647d9b;}.cls-3{fill:#333;}.cls-1{fill:#465f77;}</style></defs><g id="Calque_2" data-name="Calque 2"><g id="Calque_1-2" data-name="Calque 1"><path class="cls-2" d="M134.24,116.7A132.16,132.16,0,0,0,2.08,248.87H266.41A132.16,132.16,0,0,0,134.24,116.7Z"/><rect class="cls-3" x="127.41" y="248.87" width="6.84" height="460.03"/><rect class="cls-3" id="window-17" x="31.5" y="182.78" width="35.24" height="49.4" rx="15.5" transform="translate(98.23 414.97) rotate(-180)"/><rect class="cls-3" id="window-18" x="80.74" y="182.78" width="35.24" height="49.4" rx="15.5" transform="translate(196.72 414.97) rotate(180)"/><rect class="cls-3" id="window-19" x="129.99" y="182.78" width="35.24" height="49.4" rx="15.5" transform="translate(295.21 414.97) rotate(180)"/><rect class="cls-3" id="window-20" x="179.23" y="182.78" width="35.24" height="49.4" rx="15.5" transform="translate(393.69 414.97) rotate(180)"/><path class="cls-1" d="M134.24,116.7c-63.69,0-130.88,47.93-132.16,132.17H15.47C10.63,218.78,35.41,130.7,134.24,116.7Z"/><path class="cls-2" d="M134.24,40.42A101.66,101.66,0,0,1,235.9,142.08H32.58A101.67,101.67,0,0,1,134.24,40.42Z"/><rect class="cls-3" id="window-16" x="156.02" y="84.22" width="35.24" height="49.4" rx="15.5"/><rect class="cls-3" id="window-15" x="106.78" y="84.22" width="35.24" height="49.4" rx="15.5"/><rect class="cls-3" id="window-14" x="57.53" y="84.22" width="35.24" height="49.4" rx="15.5"/><path class="cls-1" d="M134.24,40.42c49,0,100.68,36.87,101.66,101.66H225.6C229.32,118.94,210.26,51.19,134.24,40.42Z"/><rect class="cls-2" x="131.28" y="18.43" width="5.93" height="26.87"/><path class="cls-1" d="M135.45,7.6C61.31-.64.67-2.46,0,3.52S58.9,21,133,29.26s134.78,10.06,135.44,4.08S209.58,15.83,135.45,7.6Zm-8.14,10.06c-41.57-4.62-75.09-10-74.87-12s34.1.13,75.67,4.75,75.1,10,74.88,12S168.89,22.28,127.31,17.66Z"/></g></g></svg>