<svg xmlns="http://www.w3.org/2000/svg" viewBox="0 0 207.45 436.53"><defs><style>.cls-1{fill:#465f77;}.cls-2{fill:#647d9b;}.cls-3{fill:#333;}</style></defs><g id="Calque_2" data-name="Calque 2"><g id="Calque_1-2" data-name="Calque 1"><path class="cls-1" d="M107.91,0c32.73,0,56.32,23.59,56.32,43.38V436.53H158.9L157.38,44.14Z"/><path class="cls-2" d="M107.91,0a51,51,0,0,0-51,51V436.53h102V51A51,51,0,0,0,107.91,0Z"/><path class="cls-1" d="M158.87,26.25c.2.34.77,1.28,1.19,2,19.54-2.15,32.06-3.11,32.17-2.33.18,1.39-38.84,7.76-87.17,14.23S17.4,50.77,17.22,49.38c-.12-.9,16.07-3.86,40.54-7.59.15-.83.37-2,.48-2.43C23.49,45-.32,50.31,0,52.71c.45,3.33,47.25-.19,104.53-7.86S207.89,28.26,207.45,24.92C207.16,22.79,187.81,23.47,158.87,26.25Z"/><rect class="cls-3" id="window-21" x="81.83" y="65.72" width="35.24" height="49.4" rx="15.5"/><rect class="cls-3" id="window-22" x="81.83" y="129.13" width="35.24" height="49.4" rx="15.5"/><rect class="cls-3" id="window-23" x="81.83" y="192.54" width="35.24" height="49.4" rx="15.5"/><rect class="cls-3" id="window-24" x="81.83" y="255.95" width="35.24" height="49.4" rx="15.5"/></g></g></svg>