<svg xmlns="http://www.w3.org/2000/svg" viewBox="0 0 182.78 780.05"><defs><style>.cls-1{fill:#465f77;}.cls-2{fill:#647d9b;}.cls-3{fill:#333;}</style></defs><g id="Calque_2" data-name="Calque 2"><g id="Calque_1-2" data-name="Calque 1"><path class="cls-1" d="M95.08,0c28.84,0,49.62,20.79,49.62,38.22V780.05H140L138.67,38.89Z"/><path class="cls-2" d="M94.31,0C69.68.42,50.15,21,50.15,45.67V780.05H140V44.93A44.93,44.93,0,0,0,94.31,0Z"/><path class="cls-1" d="M140,23.13c.18.29.68,1.13,1.05,1.78,17.22-1.89,28.25-2.74,28.34-2.05.16,1.22-34.22,6.83-76.8,12.54s-77.23,9.33-77.4,8.11c-.1-.79,14.16-3.41,35.72-6.69.13-.73.33-1.76.43-2.14C20.7,39.66-.28,44.32,0,46.44c.4,2.94,41.63-.16,92.1-6.92S183.17,24.9,182.78,22C182.53,20.08,165.48,20.68,140,23.13Z"/><rect class="cls-3" id="window-25" x="72.1" y="57.9" width="33.46" height="46.91" rx="14.6"/><rect class="cls-3" id="window-26" x="72.1" y="119.91" width="33.46" height="46.91" rx="14.6"/><rect class="cls-3" id="window-27" x="72.1" y="181.92" width="33.46" height="46.91" rx="14.6"/><rect class="cls-3" id="window-28" x="72.1" y="243.93" width="33.46" height="46.91" rx="14.6"/><rect class="cls-3" id="window-29" x="72.1" y="305.93" width="33.46" height="46.91" rx="14.6"/><rect class="cls-3" id="window-30" x="72.1" y="367.94" width="33.46" height="46.91" rx="14.6"/><rect class="cls-3" id="window-31" x="72.1" y="429.95" width="33.46" height="46.91" rx="14.6"/><rect class="cls-3" id="window-32" x="72.1" y="491.96" width="33.46" height="46.91" rx="14.6"/><rect class="cls-3" id="window-33" x="72.1" y="553.96" width="33.46" height="46.91" rx="14.6"/><rect class="cls-3" id="window-34" x="72.1" y="615.97" width="33.46" height="46.91" rx="14.6"/></g></g></svg>