<svg xmlns="http://www.w3.org/2000/svg" viewBox="0 0 203.32 380.55"><defs><style>.cls-3{fill:#333;}.cls-2{fill:#647d9b;}.cls-1{fill:#465f77;}</style></defs><g id="Calque_2" data-name="Calque 2"><g id="Calque_1-2" data-name="Calque 1"><rect class="cls-3" x="98.24" y="100.74" width="6.84" height="279.81"/><path class="cls-2" d="M101.66,0A101.65,101.65,0,0,0,0,101.66H203.32A101.66,101.66,0,0,0,101.66,0Z"/><rect class="cls-3" id="window-35" x="44.64" y="43.8" width="35.24" height="49.4" rx="15.5" transform="translate(124.53 137.01) rotate(180)"/><rect class="cls-3" id="window-36" x="93.89" y="43.8" width="35.24" height="49.4" rx="15.5" transform="translate(223.01 137.01) rotate(180)"/><rect class="cls-3" id="window-37" x="143.13" y="43.8" width="35.24" height="49.4" rx="15.5" transform="translate(321.5 137.01) rotate(180)"/><path class="cls-1" d="M101.66.16C52.67.14,1,37,0,101.81H10.3C6.58,78.68,25.64,10.93,101.66.16Z"/><path class="cls-1" d="M101.66.16c49,0,100.67,36.86,101.66,101.65H193C196.74,78.68,177.68,10.93,101.66.16Z"/></g></g></svg>