<svg xmlns="http://www.w3.org/2000/svg" viewBox="0 0 182.78 512.87"><defs><style>.cls-1{fill:#465f77;}.cls-2{fill:#647d9b;}.cls-3{fill:#333;}</style></defs><g id="Calque_2" data-name="Calque 2"><g id="Calque_1-2" data-name="Calque 1"><path class="cls-1" d="M95.08,148.94c28.84,0,49.62,20.79,49.62,38.23v325.7H140l-1.34-325Z"/><path class="cls-2" d="M95.08,148.94a44.94,44.94,0,0,0-44.93,44.93v319H140v-319A44.94,44.94,0,0,0,95.08,148.94Z"/><path class="cls-1" d="M140,172.08c.18.29.68,1.12,1.05,1.78,17.22-1.9,28.25-2.75,28.34-2.06.16,1.22-34.22,6.84-76.8,12.54s-77.23,9.33-77.4,8.11c-.1-.79,14.16-3.4,35.72-6.69.13-.72.33-1.75.43-2.13C20.7,188.6-.28,193.27,0,195.38c.4,2.94,41.63-.16,92.1-6.92s91.07-14.62,90.68-17.55C182.53,169,165.48,169.62,140,172.08Z"/><rect class="cls-3" id="window-40" x="72.1" y="206.85" width="31.05" height="43.53" rx="14.6"/><rect class="cls-3" id="window-41" x="72.1" y="264.38" width="31.05" height="43.53" rx="14.6"/><rect class="cls-3" id="window-42" x="72.1" y="321.92" width="31.05" height="43.53" rx="14.6"/><rect class="cls-3" id="window-43" x="72.1" y="379.46" width="31.05" height="43.53" rx="14.6"/><rect class="cls-3" id="window-44" x="72.1" y="437" width="31.05" height="43.53" rx="14.6"/><rect class="cls-2" x="92.11" y="130.3" width="5.93" height="26.87"/><circle class="cls-2" cx="95.08" cy="80.8" r="49.5"/><rect class="cls-3" id="window-45" x="64.03" y="56.12" width="31.05" height="43.53" rx="14.6"/><rect class="cls-2" x="92.11" y="6.69" width="5.93" height="26.87"/><ellipse class="cls-2" cx="95.08" cy="17.29" rx="16.82" ry="5.38"/><ellipse class="cls-1" cx="95.08" cy="14.1" rx="16.82" ry="5.38"/><ellipse class="cls-2" cx="95.08" cy="10.91" rx="16.82" ry="5.38"/><ellipse class="cls-1" cx="95.08" cy="7.72" rx="16.82" ry="5.38"/><circle class="cls-2" cx="95.08" cy="3.86" r="3.86"/></g></g></svg>