<svg id="Calque_1" data-name="Calque 1" xmlns="http://www.w3.org/2000/svg" viewBox="0 0 841.89 237.68"><defs><style>.cls-1{fill:#1d1d1b;}.cls-2{fill:#476078;}.cls-3{fill:#647e9c;}.cls-4{fill:#343434;}</style></defs><path class="cls-1" d="M88.37,218a57.31,57.31,0,0,1-14.1,3.86,122.32,122.32,0,0,1-16.72,1q-12.6,0-20.49-2.82a23.41,23.41,0,0,1-12.22-9.58q-4.32-6.76-5.92-18.7a237.28,237.28,0,0,1-1.59-30.35A226.81,226.81,0,0,1,19,130.82q1.69-12,6.11-18.79a23.34,23.34,0,0,1,12.49-9.49q8.09-2.73,21.05-2.73c2.26,0,5,.13,8.18.38s6.42.66,9.68,1.22a65.23,65.23,0,0,1,8.45,2l-1.5,10.52a77.65,77.65,0,0,0-11.18-2q-6.12-.66-11.56-1t-8.65-.37Q41,110.53,35.65,113T30.3,125.19v84.56A61.17,61.17,0,0,0,42,212.2a114.24,114.24,0,0,0,13.34.75,95,95,0,0,0,15.88-1.32q7.8-1.31,15.69-3.38Z"/><path class="cls-1" d="M113,220.09V96.24l12-1.12v38.15a40.42,40.42,0,0,1,13.25-6.58,63.77,63.77,0,0,1,17.38-2.07q13.16,0,19.64,3.39a11.12,11.12,0,0,1,6.49,10.52v81.56H169.55V134.58H142.3c-6.76,0-11.31.82-13.62,2.44s-3.48,4.77-3.48,9.4v73.67Z"/><path class="cls-1" d="M240,221.59q-15,0-21.14-6t-6.11-20.86q0-10.16,1.6-16.16a13.33,13.33,0,0,1,7-8.83q5.45-2.82,16.72-3.67t30.64-.84h7.51v10H239.65q-9.41,0-12.69,2.53t-3.29,9.49v23.87h31.2q9.21,0,12.5-2.63t3.29-9.59V137.59Q262.2,135,248.29,135a98.2,98.2,0,0,0-14.56,1.13,114.16,114.16,0,0,0-15.32,3.38l-1.69-9.59a59.65,59.65,0,0,1,9.58-2.72,119.16,119.16,0,0,1,12.41-1.88q6.57-.66,12.59-.66,12,0,18.89,2.16t9.77,7.43q2.91,5.26,2.91,14.28v71.6H277.8l-3.57-9.4Q261.43,221.6,240,221.59Z"/><path class="cls-1" d="M312.94,135.15v-9h44.73v9Zm24.62,86.44q-5.07,0-7.61-2.91c-1.69-1.94-2.54-4.91-2.54-8.93V104.32l12.22-3.19V210.69l5.35.47q3.11.28,8.74.29l-.94,8.45q-5.64.94-9.3,1.32T337.56,221.59Z"/><path class="cls-1" d="M395.06,126.13l9.4,13a61.69,61.69,0,0,1,13-10.05,55.6,55.6,0,0,1,14.47-5.73L434,155.44a38.31,38.31,0,0,0-7.61,1.88c-2.94,1-5.73,2.1-8.36,3.29a33.36,33.36,0,0,0-6.2,3.48v56H378.71v-94Z"/><path class="cls-1" d="M490,222.72q-12.78,0-21.8-2.82a34.26,34.26,0,0,1-14.75-8.74A35.74,35.74,0,0,1,445,195.75a82.49,82.49,0,0,1-2.73-22.64A83.42,83.42,0,0,1,445,150.27a35.85,35.85,0,0,1,8.46-15.41,33.63,33.63,0,0,1,14.75-8.64,88.41,88.41,0,0,1,43.6,0,33.68,33.68,0,0,1,14.75,8.64,35.21,35.21,0,0,1,8.36,15.41,86.15,86.15,0,0,1,2.63,22.84,85.19,85.19,0,0,1-2.63,22.64,35.1,35.1,0,0,1-8.36,15.41,34.32,34.32,0,0,1-14.75,8.74Q502.74,222.72,490,222.72Zm-12.22-25.18h16.73c3,0,5-.34,6.11-1s1.59-2,1.59-4V148.68H485.46q-4.51,0-6.11,1c-1.07.69-1.6,2-1.6,4Z"/><path class="cls-1" d="M599.16,222.72q-12.79,0-21.8-2.82a34.3,34.3,0,0,1-14.76-8.74,35.83,35.83,0,0,1-8.45-15.41,82.49,82.49,0,0,1-2.73-22.64,83.42,83.42,0,0,1,2.73-22.84,36,36,0,0,1,8.45-15.41,33.66,33.66,0,0,1,14.76-8.64,88.41,88.41,0,0,1,43.6,0,33.68,33.68,0,0,1,14.75,8.64,35.21,35.21,0,0,1,8.36,15.41,86.56,86.56,0,0,1,2.63,22.84,85.6,85.6,0,0,1-2.63,22.64,35.1,35.1,0,0,1-8.36,15.41A34.32,34.32,0,0,1,621,219.9Q611.93,222.72,599.16,222.72Zm-12.22-25.18h16.73c3,0,5-.34,6.1-1s1.6-2,1.6-4V148.68H594.64c-3,0-5,.34-6.1,1s-1.6,2-1.6,4Z"/><path class="cls-1" d="M664.93,220.09v-94h16.35l8.27,9.39a58.71,58.71,0,0,1,16.73-9,56.8,56.8,0,0,1,18.41-3q13.35,0,20.58,5.36t7.24,14.94v76.3H719.43V150.74h-12c-3.51,0-5.95.51-7.33,1.51s-2.06,2.69-2.06,5.07v62.77Zm54.5,0v-94l24.62,9.39a58.79,58.79,0,0,1,16.72-9,56.9,56.9,0,0,1,18.42-3q13.35,0,20.58,5.36T807,143.79v76.3H773.93V150.74h-12c-3.51,0-5.95.51-7.33,1.51s-2.06,2.69-2.06,5.07v62.77Z"/><path class="cls-2" d="M791.15,92.2c-10.13,0-17.44,7.3-17.44,13.43V220.09h1.65l.47-114.22Z"/><path class="cls-3" d="M791.15,92.2A15.79,15.79,0,0,1,806.94,108v112.1H775.36V108A15.79,15.79,0,0,1,791.15,92.2Z"/><path class="cls-2" d="M775.37,100.33c-.06.1-.24.39-.37.62-6-.66-9.93-1-10-.72-.06.43,12,2.4,27,4.41s27.14,3.28,27.2,2.85c0-.28-5-1.2-12.55-2.35,0-.26-.12-.62-.15-.75,10.76,1.74,18.13,3.39,18,4.13-.14,1-14.63-.06-32.37-2.43s-32-5.14-31.86-6.17C760.42,99.25,766.41,99.46,775.37,100.33Z"/><path class="cls-2" d="M775.37,165.86l-.37.63c-6-.67-9.93-1-10-.72-.06.43,12,2.4,27,4.4s27.14,3.28,27.2,2.85c0-.27-5-1.19-12.55-2.35l-.15-.75c10.76,1.75,18.13,3.39,18,4.13-.14,1-14.63-.05-32.37-2.43s-32-5.14-31.86-6.17C760.42,164.79,766.41,165,775.37,165.86Z"/><rect class="cls-4" x="788.31" y="112.55" width="10.91" height="15.3" rx="2.02" transform="translate(1587.54 240.39) rotate(180)"/><rect class="cls-4" x="788.31" y="133.51" width="10.91" height="15.3" rx="2.02" transform="translate(1587.54 282.31) rotate(180)"/><rect class="cls-4" x="788.31" y="154.47" width="10.91" height="15.3" rx="2.02" transform="translate(1587.54 324.23) rotate(180)"/><rect class="cls-4" x="788.31" y="175.43" width="10.91" height="15.3" rx="2.02" transform="translate(1587.54 366.15) rotate(-180)"/><rect class="cls-4" x="788.31" y="196.39" width="10.91" height="15.3" rx="2.02" transform="translate(1587.54 408.07) rotate(180)"/><path class="cls-2" d="M737.91,73C749.56,73,758,81.38,758,88.43V220.09h-1.9L755.53,88.7Z"/><path class="cls-3" d="M737.91,73a18.16,18.16,0,0,0-18.16,18.16v129h36.32V91.14A18.16,18.16,0,0,0,737.91,73Z"/><path class="cls-2" d="M756.06,82.33c.07.12.27.45.42.72,7-.77,11.42-1.11,11.46-.83.06.49-13.84,2.76-31.05,5.07s-31.22,3.77-31.29,3.28c0-.32,5.73-1.38,14.44-2.71.06-.29.14-.71.18-.86-12.38,2-20.86,3.9-20.75,4.75.16,1.19,16.83-.07,37.23-2.8s36.82-5.91,36.66-7.09C773.26,81.09,766.37,81.34,756.06,82.33Z"/><rect class="cls-4" x="728.62" y="96.38" width="12.55" height="17.6" rx="2.32"/><rect class="cls-4" x="728.62" y="119.64" width="12.55" height="17.6" rx="2.32"/><rect class="cls-4" x="728.62" y="142.9" width="12.55" height="17.6" rx="2.32"/><rect class="cls-4" x="728.62" y="166.16" width="12.55" height="17.6" rx="2.32"/><rect class="cls-4" x="728.62" y="189.42" width="12.55" height="17.6" rx="2.32"/><rect class="cls-3" x="736.71" y="65.44" width="2.4" height="10.86"/><circle class="cls-3" cx="737.91" cy="45.43" r="20.01"/><rect class="cls-4" x="725.36" y="35.46" width="12.55" height="17.6" rx="2.32"/><rect class="cls-3" x="736.71" y="15.47" width="2.4" height="10.86"/><ellipse class="cls-3" cx="737.91" cy="19.76" rx="6.8" ry="2.17"/><ellipse class="cls-2" cx="737.91" cy="18.47" rx="6.8" ry="2.17"/><ellipse class="cls-3" cx="737.91" cy="17.18" rx="6.8" ry="2.17"/><ellipse class="cls-2" cx="737.91" cy="15.89" rx="6.8" ry="2.17"/><circle class="cls-3" cx="737.91" cy="14.33" r="1.56"/></svg>