<svg xmlns="http://www.w3.org/2000/svg" viewBox="0 0 894.41 894.41"><defs><style>.cls-1{fill:#2178bd;}.cls-2{fill:#203c7a;}.cls-3{fill:#475ba4;}</style></defs><g id="Calque_2" data-name="Calque 2"><g id="Calque_1-2" data-name="Calque 1"><circle class="cls-1" cx="447.21" cy="447.21" r="447.21"/><path class="cls-2" d="M447.21,0C200.63,0,0,200.61,0,447.2S200.63,894.41,447.21,894.41s447.2-200.6,447.2-447.21S693.79,0,447.21,0Zm0,212L697.88,462.7a56.63,56.63,0,0,1,0,79.87l-39.94,39.95a56.64,56.64,0,0,1-79.89,0L447.21,451.69,316.37,582.51a56.61,56.61,0,0,1-79.88,0l-39.94-40a56.63,56.63,0,0,1,0-79.87Z"/><path class="cls-3" d="M447.21,0V894.41c247,0,447.2-200.22,447.2-447.2S694.19,0,447.21,0Z"/><path class="cls-1" d="M447.22,211.2,697.87,461.86s39.94,39.92,0,79.87l-39.94,39.95s-39,40.85-79.88,0L447.21,450.86Z"/></g></g></svg>